<?xml version="1.0" standalone="no"?>
<!DOCTYPE svg PUBLIC "-//W3C//DTD SVG 20010904//EN"
 "http://www.w3.org/TR/2001/REC-SVG-20010904/DTD/svg10.dtd">
<svg version="1.0" xmlns="http://www.w3.org/2000/svg"
 width="187.000000pt" height="187.000000pt" viewBox="0 0 187.000000 187.000000"
 preserveAspectRatio="xMidYMid meet">
<metadata>
Created by potrace 1.14, written by Peter Selinger 2001-2017
</metadata>
<g transform="translate(0.000000,187.000000) scale(0.100000,-0.100000)"
fill="#000000" stroke="none">
<path d="M805 1721 c-48 -7 -48 14 -4 -276 27 -178 60 -315 80 -323 4 -2 4
-12 1 -24 -3 -14 -1 -19 6 -14 6 3 14 1 18 -5 4 -8 3 -9 -4 -5 -9 5 -12 -31
-12 -138 0 -221 -23 -298 -113 -383 -83 -78 -143 -105 -259 -113 -57 -4 -103
-12 -113 -20 -41 -34 -55 -130 -19 -130 8 0 26 -11 40 -25 33 -33 77 -55 109
-55 14 0 25 -5 25 -10 0 -17 44 -29 127 -34 64 -5 90 -2 138 15 83 29 150 46
217 54 l57 7 7 -37 c3 -20 13 -39 22 -42 18 -7 187 23 215 39 16 8 19 18 14
54 -4 37 -1 47 16 59 13 9 18 21 14 34 -3 12 -1 23 4 27 5 3 7 49 5 102 -2 79
3 121 26 224 16 70 33 174 39 230 13 125 27 781 17 789 -11 7 -625 8 -673 0z
m560 -241 c3 -5 1 -10 -4 -10 -6 0 -11 5 -11 10 0 6 2 10 4 10 3 0 8 -4 11
-10z m-8 -50 c-4 -31 -17 -54 -17 -29 0 18 11 59 16 59 2 0 2 -14 1 -30z"/>
</g>
</svg>
